<svg width="48" height="48" viewBox="0 0 48 48" fill="none" xmlns="http://www.w3.org/2000/svg">
<rect width="48" height="48" rx="8.88889" fill="white"/>
<path d="M19.5,16.6 H11.5 C9,16.6 7.5,17.8 7.5,20 V26 C7.5,28.2 9,30 11.5,30 H17.5 C20,30 21.5,28.2 21.5,26 V23.5 H14.5 V25 H19.5 V27 C19.5,27.9 19,28.5 18,28.5 H11.5 C10,28.5 9.5,27.9 9.5,26 V20 C9.5,18.6 10,18 11.5,18 H17.5 C18.5,18 19.5,18.6 19.5,20 V21.5 H22.5 V20 C22.5,17.6 21,16.6 19.5,16.6 Z M24,16.6 H31 C34.5,16.6 36.5,17.7 36.5,19.8 C36.5,21.9 34.5,23.0 31,23.0 H28 V23.8 H31.5 C35,23.8 37,24.9 37,27.0 C37,29.1 35,30.0 31.5,30.0 H24 V16.6 Z M26.5,18.1 H30.5 C32.5,18.1 33.5,18.8 33.5,19.8 C33.5,20.8 32.5,21.5 30.5,21.5 H26.5 V18.1 Z M26.5,24.8 H31 C33,24.8 34,25.5 34,26.5 C34,27.5 33,28.2 31,28.2 H26.5 V24.8 Z" fill="url(#paint0_linear_1545_39)"/>
<defs>
<linearGradient id="paint0_linear_1545_39" x1="8" y1="35.5" x2="38.0109" y2="10.5484" gradientUnits="userSpaceOnUse">
<stop stop-color="#989FFF"/>
<stop offset="1" stop-color="#29A2FF"/>
</linearGradient>
</defs>
</svg>